<?xml version="1.0" encoding="utf-8"?>
<!-- Generator: Adobe Illustrator 22.0.1, SVG Export Plug-In . SVG Version: 6.00 Build 0)  -->
<svg version="1.1" id="Layer_1" xmlns="http://www.w3.org/2000/svg" xmlns:xlink="http://www.w3.org/1999/xlink" x="0px" y="0px"
	 viewBox="0 0 512 512" style="enable-background:new 0 0 512 512;" xml:space="preserve">
<style type="text/css">
	.st0{fill:#D96826;}
	.st1{fill:#361F17;}
	.st2{fill:#FFFFFF;}
	.st3{fill:#F18321;}
	.st4{fill:#E0E1E0;}
	.st5{fill:#FAA62A;}
	.st6{fill:#FFCA67;}
	.st7{fill:#C6C8CB;}
	.st8{fill:#D7DE27;}
	.st9{fill:#E8EB87;}
	.st10{fill:#ABB437;}
	.st11{fill:#65493E;}
</style>
<g>
	<g>
		<g>
			<path class="st0" d="M170.6,218.3c-44.8,10-94.3-17.5-116.2-67.2c-13-29.6-13.6-60.9-4.2-87.1c-36.6,34-49.6,88.6-28.3,136.8
				c26.9,60.9,98,88.5,158.9,61.6c1.8-0.8,3.5-1.8,5.3-2.7L170.6,218.3z"/>
			<path class="st1" d="M132.2,279.5L132.2,279.5c-50.5,0-96.3-29.8-116.6-76C-6.2,153.9,5.8,95.8,45.6,58.9
				c2.3-2.1,5.8-2.4,8.5-0.7c2.6,1.7,3.7,5.1,2.7,8c-9.2,25.5-7.8,55.4,4,82c17.2,39,53.9,65.2,91.4,65.2c5.8,0,11.5-0.6,17.1-1.9
				c3.3-0.7,6.7,1.1,7.9,4.3l15.5,41.4c1.2,3.3-0.2,6.9-3.3,8.5l-1.7,0.9c-1.3,0.7-2.6,1.4-3.9,2
				C167.2,275.9,149.9,279.5,132.2,279.5z M37.6,89.3C16.4,121.1,12.3,162,28.2,198c18.2,41.2,59,67.8,104.1,67.8
				c15.6,0,30.9-3.2,45.3-9.5l-11.3-30.3c-4.7,0.7-9.4,1.1-14.2,1.1c-43.5,0-84.3-28.8-103.9-73.3C39,133.2,35.4,110.7,37.6,89.3z"
				/>
		</g>
		<path class="st2" d="M208.7,404.3c5.3,6.9-12,32.4-15.3,38.3c-8.1,14.7-17.6,29-35,33c-15.3,3.5-35.9,1.5-44.9-13.2
			c-8.6-13.9-0.6-35.4,4.7-49c8-20.6,11.1-39.6,10.1-61.8C125.9,297.3,208.7,404.3,208.7,404.3z"/>
		<path class="st3" d="M148.5,436.4c26.2,0,47.8-18.3,52-42.3c-15.4-18.7-48.3-56.7-63.8-57.8c-1.7,0.4-3.3,0.9-4.9,1.5
			c-2.4,2.1-3.7,6.4-3.4,13.8c1,22.2-2.1,41.2-10.1,61.8c-1.2,3.2-2.6,6.9-3.9,10.7C123.6,431.7,135.4,436.4,148.5,436.4z"/>
		<path class="st4" d="M199.8,431.9c-0.5-1.9-0.9-3-0.9-3s-58.9-31.4-65.7-45.7c-2.1-4.4-4.2-4.7-6.2-3.1c-1,7-2.5,13.9-4.6,20.8
			c5.7,6.3,19.2,19.9,38.8,29.7c26.3,13.1,1.1,43.4-16.6,44.6c-2.9,0.2-3.4,0.8-2.6,1.7c5.7,0.3,11.4-0.1,16.5-1.3
			c17.4-4,26.9-18.3,35-33C194.5,440.7,197.1,436.7,199.8,431.9z"/>
		<path class="st0" d="M133.2,383.2c-2.1-4.4-4.2-4.7-6.2-3.1c0,0,0,0,0,0c-0.4,2.8-0.9,5.5-1.5,8.3c-0.3,1.4-0.6,2.8-1,4.3
			c-0.7,2.7-1.3,5.5-2.2,8.2c5.7,6.3,19.2,19.9,38.8,29.7c1.8,0.9,3.3,1.8,4.6,2.9c7.6-2.5,14.2-6.7,19.8-12
			C167.7,411.3,137.9,393.1,133.2,383.2z"/>
		<path class="st1" d="M145.3,484c-16.9,0-30.6-6.5-37.6-18c-10.6-17.3-1-41.9,4.2-55.1c7.6-19.5,10.6-37.7,9.6-58.9
			c-0.4-8.7,1.2-14.8,4.8-18.6c2.5-2.6,5.8-4,9.6-4c24.8,0,77.9,70.4,78.4,71.2c5.9,7.6-0.2,21.1-12.7,41.7c-1,1.6-1.8,2.9-2.3,3.8
			c-8.4,15.1-19.1,31.7-39.4,36.3C155.2,483.4,150.1,484,145.3,484z M136,343.1c-0.1,0.2-1,2.2-0.8,8.2c1.1,23.2-2.2,43.2-10.6,64.6
			c-4,10.2-12.3,31.5-5.3,42.9c6.1,9.9,18.8,11.4,25.9,11.4c3.9,0,7.9-0.5,11.7-1.3c14.9-3.4,23.2-16.5,30.5-29.6
			c0.5-1,1.4-2.4,2.5-4.3c11.3-18.6,13.2-25.2,12.9-27.4C178.9,377,146.1,343.2,136,343.1z"/>
		<g>
			<path class="st2" d="M304.2,404.3c-5.3,6.9,12,32.4,15.3,38.3c8.1,14.7,17.6,29,35,33c15.3,3.5,35.9,1.5,44.9-13.2
				c8.6-13.9,0.6-35.4-4.7-49c-8-20.6-11.1-39.6-10.1-61.8C387,297.3,304.2,404.3,304.2,404.3z"/>
			<path class="st3" d="M364.4,436.4c-26.2,0-47.8-18.3-52-42.3c15.4-18.7,48.3-56.7,63.8-57.8c1.7,0.4,3.3,0.9,4.9,1.5
				c2.4,2.1,3.7,6.4,3.4,13.8c-1,22.2,2.1,41.2,10.1,61.8c1.2,3.2,2.6,6.9,3.9,10.7C389.3,431.7,377.5,436.4,364.4,436.4z"/>
			<path class="st4" d="M313,431.9c0.5-1.9,0.9-3,0.9-3s58.9-31.4,65.7-45.7c2.1-4.4,4.2-4.7,6.1-3.1c1,7,2.5,13.9,4.6,20.8
				c-5.7,6.3-19.2,19.9-38.8,29.7c-26.3,13.1-1.1,43.4,16.6,44.6c2.9,0.2,3.4,0.8,2.6,1.7c-5.7,0.3-11.4-0.1-16.5-1.3
				c-17.4-4-26.8-18.3-35-33C318.4,440.7,315.8,436.7,313,431.9z"/>
			<path class="st0" d="M379.7,383.2c2.1-4.4,4.2-4.7,6.1-3.1c0,0,0,0,0,0c0.4,2.8,0.9,5.5,1.5,8.3c0.3,1.4,0.6,2.8,1,4.3
				c0.7,2.7,1.3,5.5,2.2,8.2c-5.7,6.3-19.2,19.9-38.8,29.7c-1.8,0.9-3.3,1.8-4.6,2.9c-7.6-2.5-14.2-6.7-19.8-12
				C345.1,411.3,374.9,393.1,379.7,383.2z"/>
			<path class="st1" d="M352.9,482.3c-20.4-4.7-31.1-21.2-39.5-36.3c-0.5-0.9-1.3-2.2-2.2-3.8c-12.5-20.6-18.6-34.1-12.7-41.7
				c0.5-0.7,53.7-71.2,78.4-71.2c3.8,0,7.2,1.4,9.7,4c3.6,3.8,5.2,9.9,4.8,18.6c-1,21.2,2,39.4,9.6,58.9
				c5.2,13.2,14.8,37.8,4.2,55.1c-7,11.4-20.7,18-37.6,18C362.7,484,357.6,483.4,352.9,482.3z M310,407.7
				c-0.4,2.2,1.6,8.8,12.9,27.4c1.1,1.8,2,3.3,2.5,4.3c7.3,13.1,15.6,26.2,30.5,29.6c3.8,0.9,7.8,1.3,11.7,1.3
				c7,0,19.8-1.5,25.9-11.4c7-11.5-1.3-32.7-5.3-42.9c-8.4-21.4-11.6-41.3-10.6-64.6c0.3-6-0.7-8-0.8-8.2
				C366.8,343.2,334,377,310,407.7z"/>
		</g>
		<g>
			<path class="st4" d="M51.1,278c0,0-27.1,97.8,0.8,120.2c22.6,18,47.8,1.4,48.6-56C101,304,51.1,278,51.1,278z"/>
			<path class="st1" d="M69.2,412L69.2,412c-7.2,0-14.7-2.9-21.6-8.4c-30.6-24.5-6.1-116.9-3.1-127.4c0.5-2,2-3.6,3.9-4.5
				c1.9-0.8,4.1-0.7,5.9,0.2c2.2,1.1,53.7,28.4,53.1,70.3C106.6,393.7,87.2,412,69.2,412z M55.4,288.6c-9,36.7-15.6,91.1,0.8,104.2
				c4.5,3.6,9,5.4,13,5.4c11.8,0,23.9-17.4,24.4-56.2C93.9,317,68.4,297.1,55.4,288.6z"/>
		</g>
		<g>
			<path class="st0" d="M204.4,266.9c0,61.5-36.3,111.3-81,111.3c-44.7,0-81-49.8-81-111.3s36.2-111.3,81-111.3
				C168.1,155.7,204.4,205.5,204.4,266.9z"/>
			<path class="st1" d="M123.4,385.1c-48.4,0-87.8-53-87.8-118.1c0-65.1,39.4-118.1,87.8-118.1s87.8,53,87.8,118.1
				C211.2,332.1,171.8,385.1,123.4,385.1z M123.4,162.5c-40.9,0-74.1,46.8-74.1,104.4c0,57.6,33.2,104.4,74.1,104.4
				s74.1-46.8,74.1-104.4C197.5,209.4,164.3,162.5,123.4,162.5z"/>
		</g>
		<path class="st3" d="M424.3,280.7c0,75.6-75.2,155.5-168,155.5c-92.8,0-168-79.9-168-155.5c0-75.6,75.2-118.3,168-118.3
			C349.1,162.5,424.3,205.1,424.3,280.7z"/>
		<path class="st0" d="M422.6,246.5c0,75.6-74.5,155.5-166.2,155.5c-91.8,0-166.3-79.9-166.3-155.5c0-75.6,74.4-118.3,166.3-118.3
			C348.2,128.2,422.6,170.9,422.6,246.5z"/>
		<path class="st2" d="M375.9,295.9c0,76.7-53.5,138.9-119.5,138.9c-66,0-119.5-62.2-119.5-138.9c0-76.7,53.5-138.9,119.5-138.9
			C322.4,157,375.9,219.2,375.9,295.9z"/>
		<path class="st4" d="M256.4,404.4c39.3,0,75.3-17.1,103.7-39.8c10-20.3,15.7-43.7,15.7-68.7c0-76.7-53.5-138.9-119.5-138.9
			c-66,0-119.5,62.2-119.5,138.9c0,25,5.8,48.5,15.7,68.7C181.1,387.2,217.1,404.4,256.4,404.4z"/>
		<path class="st1" d="M256.4,443.1c-100.1,0-174.8-85.7-174.8-162.3c0-74.8,70.2-125.1,174.8-125.1c104.6,0,174.8,50.3,174.8,125.1
			C431.2,357.4,356.4,443.1,256.4,443.1z M256.4,169.3c-80.2,0-161.1,34.5-161.1,111.4c0,68.7,70.4,148.6,161.1,148.6
			c90.7,0,161.1-79.9,161.1-148.6C417.5,203.8,336.6,169.3,256.4,169.3z"/>
		<path class="st5" d="M491.9,184.9c-13.3-22.5-33.8-39.3-48.6-60.7c-5.2-7.5-9.5-15.8-13.9-23.7c-7.6-13.5-15.3-27.7-27.2-37.9
			c-14.8-12.5-36.6-12.9-54.5-7.6c-1.2,0.4-15.8,7.5-14.9,8.3c-20.2-16.7-46.6-26.9-75.7-27.1c-0.1,0-0.2,0-0.3,0
			c-0.1,0-0.2,0-0.3,0h0l0,0c-0.1,0-0.2,0-0.3,0c-0.1,0-0.2,0-0.3,0c-29.1,0.2-55.5,10.4-75.7,27.1c0.9-0.7-13.7-7.9-14.9-8.3
			c-18-5.4-39.8-4.9-54.5,7.6c-12,10.1-19.7,24.4-27.2,37.9c-4.4,7.9-8.7,16.2-13.9,23.7c-14.8,21.4-35.4,38.2-48.6,60.7
			c-9.5,16.2-9.1,42.8,0.1,58.9c11.8,20.5,30.5,31,54.1,31.4c9.2,0.2,31.8-4.7,40.2-23.6c9.8,28.7,16.6,39.9,41.1,57.9
			c15.2,11.2,21.8,30.1,34.7,43.5c17.5,18.1,39.6,28.1,64.8,28.4v0h0c0.1,0,0.2,0,0.3,0c0.1,0,0.2,0,0.3,0c0,0,0,0,0,0v0l0,0h0v0h0
			c0.1,0,0.2,0,0.3,0c0.1,0,0.2,0,0.3,0c0,0,0,0,0,0v0c25.2-0.3,47.3-10.3,64.7-28.4c12.9-13.4,19.6-32.3,34.7-43.5
			c24.4-18,31.3-29.1,41.1-57.9c8.4,18.9,31,23.7,40.2,23.6c23.6-0.4,42.3-10.9,54.1-31.4C501,227.7,501.4,201.1,491.9,184.9z"/>
		<path class="st6" d="M93.2,101.2c4.9-7.8,10.4-15.3,17.5-21.3c14.8-12.5,36.6-12.9,54.5-7.6c2.8,0.9,6.3,2.6,8.6,4.4
			c2.6,2,5.3,3.5,8.5,1.9c3-1.5,5.6-4,8.4-5.8c6-3.9,12.4-7.3,19-10c13.8-5.8,28.7-8.8,43.7-9.2c0.8,0,1.6,0,3.7,0
			c14.6,0.1,29.2,2.7,42.8,7.9c6.6,2.5,13,5.6,19,9.3c4.3,2.6,8.4,7.7,13.7,8.3c2.9,0.3,5.5-2,7.9-3.3c2.3-1.2,4.7-2.7,7.1-3.4
			c18-5.4,39.8-4.9,54.5,7.6c7,6,12.5,13.4,17.5,21.3h10.2c-0.1-0.2-0.2-0.4-0.4-0.7c-7.6-13.5-15.3-27.7-27.2-37.9
			c-14.7-12.5-36.5-12.9-54.5-7.6c-1.2,0.4-15.8,7.5-14.9,8.3c-20.2-16.7-46.6-26.9-77-27.1c-29.1,0.2-55.5,10.4-75.7,27.1
			c0.9-0.7-13.7-7.9-14.9-8.3c-17.9-5.4-39.7-4.9-54.5,7.6c-12,10.1-19.6,24.4-27.2,37.9c-0.1,0.2-0.2,0.4-0.4,0.7H93.2z"/>
		<g>
			<path class="st3" d="M237.2,347.2c-24.6-8-36-38.3-50.3-53.1c-14.3-14.9-46.3-25.7-39.4-74.9c6.9-49.1-15.4-80.6-15.4-80.6
				c-5.1,78.9-38.9,115.8-81,99.6c-35.1-13.5-12.2-70.4-12.2-70.4l-6.9,1.1c-4,5.1-7.8,10.4-11.2,16c-9.5,16.2-9.1,42.8,0.1,58.9
				c11.8,20.5,30.5,31,54.1,31.4c9.2,0.2,31.8-4.7,40.2-23.6c9.8,28.7,16.6,39.9,41.1,57.9c15.2,11.2,21.8,30.1,34.7,43.5
				c17.5,18.1,39.6,28.1,64.8,28.4v0h0c0.1,0,0.2,0,0.3,0c0.1,0,0.2,0,0.3,0c0,0,0,0,0,0v0v-33.5
				C255.2,350.2,250.9,351.7,237.2,347.2z"/>
			<path class="st3" d="M256.4,344.1v3.9C257.3,346.2,256.4,344.1,256.4,344.1z"/>
		</g>
		<g>
			<path class="st3" d="M275.6,347.2c24.6-8,36-38.3,50.3-53.1c14.3-14.9,46.3-25.7,39.4-74.9c-6.9-49.1,15.4-80.6,15.4-80.6
				c5.1,78.9,38.9,115.8,81,99.6c35.1-13.5,12.1-70.4,12.1-70.4l6.9,1.1c4,5.1,7.8,10.4,11.2,16c9.5,16.2,9.1,42.8-0.1,58.9
				c-11.8,20.5-30.5,31-54.1,31.4c-9.2,0.2-31.8-4.7-40.2-23.6c-9.8,28.7-16.6,39.9-41.1,57.9c-15.2,11.2-21.8,30.1-34.7,43.5
				c-17.5,18.1-39.6,28.1-64.8,28.4v0h0c-0.1,0-0.2,0-0.3,0c-0.1,0-0.2,0-0.3,0c0,0,0,0,0,0v0v-33.5
				C257.6,350.2,261.8,351.7,275.6,347.2z"/>
			<path class="st3" d="M256.4,344.1v3.9C255.5,346.2,256.4,344.1,256.4,344.1z"/>
		</g>
		<path class="st2" d="M350.1,226.6c-8.6-11.7-20.4-12.4-31.7-19.8c-22.3-14.5-41.1-41.6-45.6-52.8c-2-5-4.3-9.9-7.5-14.3
			c-2.3-3.1-5.4-6-8.7-6.4v-0.1c0,0-0.1,0-0.1,0c0,0-0.1,0-0.1,0v0.1c-3.3,0.4-6.4,3.2-8.7,6.4c-3.2,4.3-5.5,9.3-7.5,14.3
			c-4.6,11.2-23.4,38.3-45.6,52.8c-11.3,7.4-23.1,8.1-31.7,19.8c-16.1,22-11.4,59.7,1.7,82.1c24.6,42.2,51.4,73.3,91.9,73.8v0
			c0,0,0.1,0,0.1,0c0,0,0.1,0,0.1,0v0c40.5-0.5,67.3-31.6,91.9-73.8C361.4,286.3,366.2,248.6,350.1,226.6z"/>
		<path class="st7" d="M290.4,216.1c0,14.9-15.3,29.2-34.1,29.2c-18.8,0-34.1-14.2-34.1-29.2c0-14.9,15.3-24.9,34.1-24.9
			C275.2,191.2,290.4,201.1,290.4,216.1z"/>
		<path class="st4" d="M348.4,308.7c7.5-12.8,12-30.6,11.7-47.6c-8,15.4-13.4,23.2-22.2,32.2c-14.5,15-37.2,45.5-62.2,53.6
			c-13,4.2-17.6,3.1-19.1,1.1v-0.2c0,0-0.1-0.1-0.1-0.1v-0.1c0,0,0,0,0,0c0,0,0,0,0,0v0.1c0,0-0.1,0.1-0.1,0.1v0.2
			c-1.5,2-6.1,3.1-19.1-1.1c-24.9-8.1-47.7-38.6-62.2-53.6c-8.8-9.2-14.3-17-22.5-32.8c-0.4,17.2,4.2,35.2,11.7,48.2
			c9,15.4,18.3,29.3,28.5,40.9c0.8,0.9,1.6,1.7,2.4,2.6c2.2,2.4,4.4,4.5,6.7,6.6c2,1.8,4,3.5,6,5.2c1.8,1.5,3.7,3,5.6,4.3
			c1.8,1.2,3.5,2.3,5.3,3.4c1.6,0.9,3.2,1.7,4.8,2.5c2.3,1.2,4.6,2.3,6.9,3.2c0.1,0.1,0.3,0.1,0.5,0.1c8,2.3,16.3,3.7,25.1,3.8v0h0
			c0.1,0,0.2,0,0.3,0v0c0,0,0,0,0.1,0c0,0,0,0,0,0c0,0,0,0,0,0c0,0,0.1,0,0.1,0v0c0.1,0,0.2,0,0.3,0h0v0c8.4-0.1,16.4-1.4,24-3.6
			c0.7-0.3,1.5-0.4,2.2-0.7c1.3-0.5,2.6-1.2,4-1.8c3-1.4,5.9-2.9,8.7-4.6c0.6-0.4,1.3-0.8,1.9-1.2c3.4-2.3,6.7-4.8,9.9-7.6
			c0.4-0.4,0.9-0.8,1.3-1.1C323.5,347.7,336.2,329.6,348.4,308.7z"/>
		<path class="st1" d="M257,389.7c-0.2,0-0.4,0-0.7,0c-0.3,0-0.5,0-0.8,0l0,0c-27-0.4-51.3-11-70.5-30.9c-6-6.2-10.6-13.3-15.1-20.1
			c-5.7-8.7-11-16.9-18.6-22.5c-21.4-15.8-30.5-27.4-38.6-47.3c-11.3,10.5-27,14.6-37.3,14.6C48,283,26.8,270.8,13.8,247.9
			c-10.9-19.1-11-48.6,0-67.2c7.8-13.2,17.9-24.5,27.7-35.4c7.7-8.6,15-16.8,21.3-25.8c3.8-5.5,7.3-11.8,10.6-17.8l4.1-7.3
			c7.6-13.5,15.4-27.4,27.9-38c15-12.7,39.2-16.1,62.2-9.2c0.1,0,6.7,2.3,12.4,5.8c21.6-16,48.2-24.8,75.8-25c0.2,0,0.5,0,0.8,0
			c0.3,0,0.6,0,0.6,0l0,0c27.5,0.1,54.2,9,75.8,25c5.7-3.5,12.3-5.8,12.4-5.8c23-6.8,47.2-3.5,62.2,9.2c12.5,10.6,20.3,24.5,27.9,38
			l4.1,7.3c3.3,6,6.8,12.3,10.6,17.8c6.3,9,13.6,17.2,21.3,25.8c9.8,10.9,19.9,22.1,27.7,35.4c10.9,18.5,10.9,48.1,0,67.2
			c-13.1,22.8-34.2,35.1-61.1,35.5c0,0,0,0,0,0c-10.7,0-26.5-4.1-37.8-14.6c-8.1,19.9-17.2,31.5-38.6,47.3
			c-7.6,5.6-12.9,13.8-18.6,22.5c-4.5,6.8-9.1,13.9-15.1,20.1c-19,19.7-43.1,30.3-69.8,30.9C257.6,389.6,257.3,389.7,257,389.7z
			 M256.3,373.2c0.2,0,0.4,0,0.6,0c22.5-0.3,42.9-9.2,58.9-25.9c4.9-5.1,8.9-11.2,13.1-17.7c6.2-9.5,12.7-19.4,22.6-26.7
			c23.1-17,28.9-26.8,38.2-53.9c1.1-3.2,4-5.4,7.4-5.6c3.3,0,6.5,1.8,7.9,4.9c6.7,15.2,26,18.7,32.2,18.7
			c21.4-0.3,37.2-9.5,47.4-27.3c7.9-13.7,7.9-37.4,0.1-50.6c-7-11.8-16.1-22-25.7-32.8c-7.7-8.6-15.7-17.5-22.6-27.4
			c-4.3-6.2-7.9-12.8-11.5-19.2l-4.1-7.3c-6.9-12.2-14-24.9-24.2-33.5c-8.7-7.3-19.7-8.9-27.5-8.9c-6.3,0-13,1-19.4,2.9
			c-2.4,1-4.7,2.3-7,3.5c-5,2.7-9.8,8-15.6,3.2C308,53.6,283,44.6,257,44.5c-0.7,0.1-1.3,0-2,0c-25.2,0.2-50.2,9.1-69.7,25.2
			c-0.5,0-1.9,1.2-2.5,1.4c-1,0.4-2.1,0.5-3.1,0.5c-2.2-0.1-3.4-1.1-5.1-2.3c-3.7-2.6-8.1-4.8-12.3-6.5c-5.9-1.7-12.6-2.7-18.9-2.7
			c-7.8,0-18.8,1.5-27.5,8.9c-10.2,8.7-17.3,21.3-24.2,33.5l-4,7.3c-3.5,6.4-7.2,13-11.5,19.2c-6.8,9.9-14.8,18.8-22.6,27.4
			c-9.7,10.8-18.8,20.9-25.7,32.8c-7.8,13.2-7.7,36.9,0.1,50.7c10.2,17.7,26,26.9,47.1,27.2c6.5,0,25.7-3.4,32.5-18.7
			c1.4-3.1,4.6-4.8,7.9-4.9c3.4,0.2,6.3,2.4,7.4,5.6c9.2,27.1,15,36.8,38.2,53.9c10,7.3,16.4,17.2,22.6,26.7
			c4.2,6.5,8.2,12.6,13.1,17.7c16.1,16.6,36.5,25.6,58.9,25.9C256,373.2,256.2,373.2,256.3,373.2z"/>
		<g>
			<path class="st1" d="M323.8,233.4c-41.1,36.6-67.4,15.4-67.4,2.9c0,12.6-26.3,33.7-67.4-2.9c0,0-22.3,5.7,9.1,46.3
				c31.4,40.6,23.9,77.7,58.3,77.7c34.4,0,26.9-37.1,58.3-77.7C346.1,239.1,323.8,233.4,323.8,233.4z"/>
			<path class="st1" d="M256.4,365.6c-26.2,0-33.8-18.6-41.8-38.2c-5.2-12.9-11.2-27.4-23-42.7c-15.6-20.2-21.3-35.6-17.3-47.1
				c3.3-9.6,11.7-12,12.7-12.2c2.7-0.7,5.5,0,7.5,1.8c17.1,15.2,29.7,18.4,37.4,18.4c11.4,0,16.4-7.1,16.4-9.4
				c0-4.5,3.7-8.2,8.2-8.2c4.6,0,8.2,3.7,8.2,8.2c0,0.9,0.9,3.1,3.5,5.2c3.2,2.7,7.8,4.1,12.9,4.1c7.6,0,20.3-3.2,37.4-18.4
				c2-1.8,4.9-2.5,7.5-1.8c1,0.2,9.4,2.7,12.7,12.2c4,11.5-1.7,26.9-17.3,47.1c-11.8,15.2-17.7,29.8-23,42.7
				C290.2,347,282.6,365.6,256.4,365.6z M189.5,244.6c-0.2,3.5,1.4,12.3,15.1,30c13.2,17,19.8,33.4,25.2,46.5
				c8.5,20.8,12.1,28,26.6,28c14.5,0,18.1-7.2,26.6-28c5.4-13.2,12-29.5,25.2-46.5c13.7-17.6,15.2-26.5,15.1-30
				c-18.1,14.3-32.8,17.5-42.2,17.5c-8.9,0-17.2-2.8-23.4-7.9c-0.4-0.3-0.8-0.7-1.2-1c-5.8,5.3-14.3,9-24.6,9
				C222.3,262.1,207.7,258.9,189.5,244.6z"/>
		</g>
		<g>
			<path class="st1" d="M256.4,250c-4.5,0-8.2-3.7-8.2-8.2V204c0-4.5,3.7-8.2,8.2-8.2c4.6,0,8.2,3.7,8.2,8.2v37.8
				C264.6,246.3,260.9,250,256.4,250z"/>
		</g>
		<path class="st8" d="M298.7,249.8c-26.4,11-42.3-3.7-42.3-13.5c0,9.8-15.9,24.5-42.3,13.5c-8.9,10-14.4,23.1-14.4,37.5
			c0,31.4,25.4,56.8,56.8,56.8c31.4,0,56.8-25.4,56.8-56.8C313.2,272.8,307.6,259.8,298.7,249.8z"/>
		<path class="st9" d="M257.6,327.7c-28.9,0-52.5-21.7-56.1-49.6c-0.3,2.5-0.7,5-0.7,7.6c0,31.4,25.4,56.8,56.8,56.8
			c31.4,0,56.8-25.4,56.8-56.8c0-2.6-0.4-5.1-0.7-7.6C310.1,306.1,286.5,327.7,257.6,327.7z"/>
		<path class="st10" d="M256.4,277.5c20.9,0,39.2-5.9,50.7-15c-2.3-4.6-5-9-8.4-12.8c-26.4,11-42.3-3.7-42.3-13.5
			c0,9.8-16,24.5-42.3,13.5c-3.4,3.8-6.1,8.2-8.4,12.8C217.1,271.6,235.5,277.5,256.4,277.5z"/>
		<path class="st1" d="M256.4,352.3c-35.9,0-65-29.2-65-65c0-15.7,5.9-31,16.5-43c2.3-2.6,6.1-3.5,9.3-2.1
			c5.2,2.2,10.1,3.3,14.7,3.3c11.4,0,16.3-7,16.3-9.2c0-4.5,3.7-8.2,8.2-8.2c4.6,0,8.2,3.7,8.2,8.2c0,0.9,0.9,3.1,3.4,5.1
			c6.1,5,16.5,5.4,27.5,0.8c3.2-1.4,7-0.5,9.3,2.1c10.7,12,16.5,27.3,16.5,43C321.4,323.1,292.2,352.3,256.4,352.3z M216.8,259.5
			c-5.8,8.2-9,17.9-9,27.8c0,26.8,21.8,48.6,48.6,48.6c26.8,0,48.6-21.8,48.6-48.6c0-9.9-3.1-19.6-9-27.8
			c-14.6,4.5-28.9,2.4-38.4-5.5c-0.4-0.3-0.8-0.7-1.2-1C247.9,260.7,232.8,264.5,216.8,259.5z"/>
		<path class="st1" d="M300.7,297.2c-6.3-11.6-21.6-22-44.2-13.5c-17.5,6.6-31,0.6-34.9-8.4c-3.1-7.1-0.2-15,7.2-22
			c-4.5-0.3-9.3-1.3-14.8-3.6c-1,1.1-1.8,2.4-2.7,3.6c-5.7,9.9-5.6,19.8-2.3,27.4c6.4,14.8,27,25.4,52.4,15.8
			c12.1-4.6,22.3-1.9,27.2,7.2c4.1,7.6,3.6,19.1-5.4,25.7c-2.8,2-3.5,5.7-1.9,8.7c9.6-4.7,17.6-11.9,23.2-20.9
			C305.2,310.5,304.1,303.5,300.7,297.2z"/>
		<g>
			<g>
				<path class="st1" d="M107.5,270.6c-1.8,0-3.7-0.6-5.2-1.9c-3.5-2.9-4-8.1-1.2-11.6c37.2-45.4,25.2-118,25.1-118.7
					c-0.8-4.5,2.2-8.7,6.7-9.5c4.5-0.8,8.7,2.2,9.5,6.7c0.6,3.3,13.4,80.6-28.6,131.9C112.2,269.6,109.9,270.6,107.5,270.6z"/>
			</g>
			<g>
				<path class="st1" d="M404.6,270.6c-2.4,0-4.7-1-6.4-3c-42-51.3-29.2-128.7-28.6-131.9c0.8-4.5,5-7.5,9.5-6.7
					c4.5,0.8,7.5,5,6.7,9.5c-0.1,0.7-12.1,73.3,25.1,118.7c2.9,3.5,2.3,8.7-1.2,11.6C408.3,270,406.4,270.6,404.6,270.6z"/>
			</g>
		</g>
		<g>
			<g>
				<path class="st1" d="M208.6,145.6c0,12.7-10.3,23.1-23,23.1c-12.7,0-23.1-10.3-23.1-23.1c0-12.7,10.3-23,23.1-23
					C198.3,122.5,208.6,132.8,208.6,145.6z"/>
				<path class="st2" d="M196,140.5c0,3.7-3,6.7-6.7,6.7c-3.7,0-6.7-3-6.7-6.7c0-3.7,3-6.7,6.7-6.7C193,133.8,196,136.8,196,140.5z"
					/>
			</g>
			<g>
				<path class="st1" d="M350.2,145.6c0,12.7-10.3,23.1-23,23.1c-12.7,0-23.1-10.3-23.1-23.1c0-12.7,10.3-23,23.1-23
					C339.9,122.5,350.2,132.8,350.2,145.6z"/>
				<path class="st2" d="M338.9,140.5c0,3.7-3,6.7-6.7,6.7c-3.7,0-6.7-3-6.7-6.7c0-3.7,3-6.7,6.7-6.7
					C335.9,133.8,338.9,136.8,338.9,140.5z"/>
			</g>
		</g>
		<g>
			<path class="st1" d="M256.4,183.9c-18.6,0-32.6,8.5-32.6,19.7c0,11.2,14.6,28.3,32.6,28.3c18,0,32.6-17.1,32.6-28.3
				C288.9,192.4,274.9,183.9,256.4,183.9z"/>
			<path class="st11" d="M256.4,200.7c4,0,7.9,0.2,11.9,0.5c2.6,0.2,5.4,1.5,8.1,1.1c3.3-0.5,2-2.9,0.1-4.6c-5-4.4-13.8-5-20.1-5
				c-5.4,0-11.1,0.6-16.1,2.7c-1.7,0.7-8.6,4.7-4.6,6.6c2,0.9,7-0.7,9.3-0.9C248.7,200.8,252.5,200.7,256.4,200.7z"/>
		</g>
	</g>
</g>
</svg>
